<?xml version="1.0" encoding="UTF-8" standalone="no"?>
<!DOCTYPE svg PUBLIC "-//W3C//DTD SVG 1.1//EN" "http://www.w3.org/Graphics/SVG/1.1/DTD/svg11.dtd">
<svg width="100%" height="100%" viewBox="0 0 2000 476" version="1.1" xmlns="http://www.w3.org/2000/svg" xmlns:xlink="http://www.w3.org/1999/xlink" xml:space="preserve" xmlns:serif="http://www.serif.com/" style="fill-rule:evenodd;clip-rule:evenodd;stroke-linejoin:round;stroke-miterlimit:2;">
    <g transform="matrix(0.7962,0,0,0.7962,-15928.3,-295.072)">
        <g transform="matrix(0.88794,0,0,0.88794,5872.29,-1449.79)">
            <g transform="matrix(4.16667,0,0,4.16667,16185.2,2214.05)">
                <path d="M0,62.983C-1.919,62.983 -3.839,62.251 -5.303,60.787L-52.555,13.536C-55.484,10.606 -55.484,5.858 -52.555,2.929C-49.626,0 -44.877,0 -41.948,2.929L5.303,50.179C8.232,53.109 8.232,57.857 5.303,60.787C3.839,62.251 1.919,62.983 0,62.983" style="fill:rgb(76,155,253);fill-rule:nonzero;"/>
            </g>
            <g transform="matrix(4.16667,0,0,4.16667,16243.7,2438.2)">
                <path d="M0,-24.682C-6.805,-24.682 -12.341,-19.146 -12.341,-12.341C-12.341,-5.536 -6.805,-0 0,-0C6.805,-0 12.341,-5.536 12.341,-12.341C12.341,-19.146 6.805,-24.682 0,-24.682M0,15C-15.076,15 -27.341,2.735 -27.341,-12.341C-27.341,-27.417 -15.076,-39.682 0,-39.682C15.076,-39.682 27.341,-27.417 27.341,-12.341C27.341,2.735 15.076,15 0,15" style="fill:rgb(76,155,253);fill-rule:nonzero;"/>
            </g>
            <g transform="matrix(4.16667,0,0,4.16667,16161,2077.1)">
                <path d="M0,81.823C-4.142,81.823 -7.5,78.466 -7.5,74.323L-7.5,7.5C-7.5,3.358 -4.142,0 0,0C4.142,0 7.5,3.358 7.5,7.5L7.5,74.323C7.5,78.466 4.142,81.823 0,81.823" style="fill:rgb(255,111,97);fill-rule:nonzero;"/>
            </g>
            <g transform="matrix(4.16667,0,0,4.16667,16326.3,2355.53)">
                <path d="M0,81.823C-4.142,81.823 -7.5,78.466 -7.5,74.323L-7.5,7.5C-7.5,3.357 -4.142,0 0,0C4.142,0 7.5,3.357 7.5,7.5L7.5,74.323C7.5,78.466 4.142,81.823 0,81.823" style="fill:rgb(76,155,253);fill-rule:nonzero;"/>
            </g>
            <g transform="matrix(4.16667,0,0,4.16667,16243.7,2427.07)">
                <path d="M0,-22.005C-3.16,-22.005 -6.32,-20.802 -8.726,-18.396C-11.057,-16.066 -12.341,-12.966 -12.341,-9.67C-12.341,-6.374 -11.057,-3.275 -8.726,-0.944C-3.915,3.868 3.915,3.868 8.726,-0.944C11.057,-3.275 12.341,-6.374 12.341,-9.67C12.341,-12.966 11.057,-16.066 8.726,-18.396C6.32,-20.802 3.16,-22.005 0,-22.005M0,17.657C-7.001,17.657 -14.002,14.993 -19.333,9.663C-24.497,4.499 -27.341,-2.367 -27.341,-9.67C-27.341,-16.973 -24.497,-23.839 -19.333,-29.003C-8.673,-39.662 8.672,-39.662 19.333,-29.003C24.497,-23.839 27.341,-16.973 27.341,-9.67C27.341,-2.367 24.496,4.499 19.333,9.663C19.332,9.663 19.333,9.662 19.333,9.663C14.002,14.993 7.001,17.657 0,17.657" style="fill:rgb(76,155,253);fill-rule:nonzero;"/>
            </g>
            <g transform="matrix(4.16667,0,0,4.16667,16185.2,2097.14)">
                <path d="M0,62.983C-1.919,62.983 -3.839,62.251 -5.303,60.787C-8.232,57.857 -8.232,53.109 -5.303,50.179L41.948,2.928C44.876,0 49.625,0 52.554,2.928C55.483,5.857 55.483,10.606 52.554,13.535L5.303,60.787C3.839,62.251 1.919,62.983 0,62.983" style="fill:rgb(255,111,97);fill-rule:nonzero;"/>
            </g>
            <g transform="matrix(4.16667,0,0,4.16667,16105.2,2410.93)">
                <path d="M0,62.982C-1.919,62.982 -3.839,62.25 -5.303,60.786C-8.232,57.856 -8.232,53.108 -5.303,50.178L41.948,2.927C44.876,0 49.625,0 52.554,2.927C55.483,5.857 55.483,10.605 52.554,13.535L5.303,60.786C3.839,62.25 1.919,62.982 0,62.982" style="fill:rgb(76,155,253);fill-rule:nonzero;"/>
            </g>
            <g transform="matrix(4.16667,0,0,4.16667,16243.7,2438.2)">
                <path d="M0,-24.682C-6.805,-24.682 -12.341,-19.146 -12.341,-12.341C-12.341,-5.536 -6.805,-0 0,-0C6.805,-0 12.341,-5.536 12.341,-12.341C12.341,-19.146 6.805,-24.682 0,-24.682M0,15C-15.076,15 -27.341,2.735 -27.341,-12.341C-27.341,-27.417 -15.076,-39.682 0,-39.682C15.076,-39.682 27.341,-27.417 27.341,-12.341C27.341,2.735 15.076,15 0,15" style="fill:rgb(76,155,253);fill-rule:nonzero;"/>
            </g>
            <g transform="matrix(4.16667,0,0,4.16667,16522.1,2272.86)">
                <path d="M0,15L-66.823,15C-70.965,15 -74.323,11.643 -74.323,7.5C-74.323,3.357 -70.965,0 -66.823,0L0,0C4.142,0 7.5,3.357 7.5,7.5C7.5,11.643 4.142,15 0,15" style="fill:rgb(255,111,97);fill-rule:nonzero;"/>
            </g>
            <g transform="matrix(4.16667,0,0,4.16667,16243.7,2438.2)">
                <path d="M0,15L-66.823,15C-70.965,15 -74.323,11.643 -74.323,7.5C-74.323,3.357 -70.965,0 -66.823,0L0,0C4.142,0 7.5,3.357 7.5,7.5C7.5,11.643 4.142,15 0,15" style="fill:rgb(76,155,253);fill-rule:nonzero;"/>
            </g>
            <g transform="matrix(4.16667,0,0,4.16667,16243.7,2427.07)">
                <path d="M0,-22.006C-3.16,-22.006 -6.32,-20.803 -8.726,-18.397C-11.057,-16.067 -12.341,-12.967 -12.341,-9.671C-12.341,-6.375 -11.057,-3.276 -8.726,-0.945C-3.915,3.867 3.915,3.867 8.726,-0.945C11.057,-3.276 12.341,-6.375 12.341,-9.671C12.341,-12.967 11.057,-16.067 8.726,-18.397C6.32,-20.803 3.16,-22.006 0,-22.006M0,17.656C-7.001,17.657 -14.002,14.991 -19.333,9.662C-19.333,9.661 -19.332,9.662 -19.333,9.662C-24.497,4.498 -27.341,-2.368 -27.341,-9.671C-27.341,-16.974 -24.497,-23.84 -19.333,-29.004C-8.673,-39.663 8.672,-39.663 19.333,-29.004C24.497,-23.84 27.341,-16.974 27.341,-9.671C27.341,-2.368 24.497,4.498 19.333,9.662C14.003,14.991 7,17.656 0,17.656" style="fill:rgb(255,111,97);fill-rule:nonzero;"/>
            </g>
            <g transform="matrix(4.16667,0,0,4.16667,16499,2294.02)">
                <path d="M0,62.982C-1.919,62.982 -3.839,62.25 -5.303,60.786L-52.555,13.535C-55.484,10.605 -55.484,5.857 -52.555,2.927C-49.626,0 -44.877,0 -41.948,2.927L5.303,50.178C8.232,53.108 8.232,57.856 5.303,60.786C3.839,62.25 1.919,62.982 0,62.982" style="fill:rgb(255,111,97);fill-rule:nonzero;"/>
            </g>
        </g>
        <g transform="matrix(0.101592,0,0,0.10941,19900.5,-341.916)">
            <path d="M8357.17,10419L9451.42,10419C9980.14,10419 10278,10188.1 10278,9776.51C10278,9522.18 10114,9287.94 9896.48,9214.32C10087.2,9117.28 10201,8929.89 10201,8692.3C10201,8307.47 9916.56,8076.57 9451.42,8076.57L8357.17,8076.57L8357.17,10419ZM8681.76,10117.8L8681.76,9361.56L9491.57,9361.56C9779.36,9361.56 9953.36,9502.11 9953.36,9736.35C9953.36,9973.94 9776.01,10117.8 9491.57,10117.8L8681.76,10117.8ZM8681.76,9070.43L8681.76,8374.4L9464.8,8374.4C9722.47,8374.4 9883.09,8504.9 9883.09,8725.76C9883.09,8943.27 9725.82,9070.43 9464.8,9070.43L8681.76,9070.43Z" style="fill:rgb(10,22,64);fill-rule:nonzero;"/>
            <path d="M10659.4,10419L10970.6,10419L10970.6,9605.84C10970.6,9264.52 11158,9040.32 11442.5,9040.32C11542.9,9040.32 11629.9,9067.09 11723.6,9127.32L11864.1,8866.31C11767.1,8785.99 11616.5,8735.8 11459.2,8735.8C11238.4,8735.8 11071,8836.19 10940.5,9043.66L10937.2,8765.92L10659.4,8765.92L10659.4,10419Z" style="fill:rgb(10,22,64);fill-rule:nonzero;"/>
            <path d="M12108.4,10419L12419.6,10419L12419.6,8765.92L12108.4,8765.92L12108.4,10419ZM12054.9,8277.35C12054.9,8394.48 12145.2,8481.48 12265.7,8481.48C12389.5,8481.48 12476.5,8394.48 12476.5,8277.35C12476.5,8156.89 12389.5,8069.88 12265.7,8069.88C12145.2,8069.88 12054.9,8156.89 12054.9,8277.35Z" style="fill:rgb(10,22,64);fill-rule:nonzero;"/>
            <path d="M13677.8,10378.8C14153.6,10378.8 14551.2,10062.1 14551.2,9559C14551.2,9361.56 14494.3,9210.98 14347.1,9036.97L14574.6,8769.26L14350.4,8595.25L14136.3,8852.92C14015.8,8775.95 13851.8,8735.8 13667.8,8735.8C13162.5,8735.8 12791,9083.82 12791,9559C12791,10060.9 13135.7,10378.8 13677.8,10378.8ZM13102.3,9559C13102.3,9241.09 13333.2,9023.58 13671.1,9023.58C14015.8,9023.58 14240,9237.75 14240,9559C14240,9873.55 14005.8,10094.4 13671.1,10094.4C13329.8,10094.4 13102.3,9880.24 13102.3,9559Z" style="fill:rgb(10,22,64);fill-rule:nonzero;"/>
            <g transform="matrix(9.84332,0,0,9.13992,-117973,-4211.86)">
                <path d="M13361.6,1566.19L13374.4,1595.81C13374.4,1595.81 13342.3,1609.59 13321.3,1628.33C13316.6,1632.52 13312.5,1636.92 13309.8,1641.55C13307.7,1645.15 13306.5,1648.88 13308.8,1652.58C13316.5,1665.2 13329,1659.94 13341.5,1653.93C13362.7,1643.73 13384.5,1627.05 13399.7,1621.76C13422.9,1613.71 13444.8,1616.76 13458.8,1627.5C13469.3,1635.62 13476.2,1648.08 13476.1,1665.04C13476.1,1675.41 13471.1,1686.07 13464.2,1694.81C13455.9,1705.43 13446.5,1714.02 13446.5,1714.02L13425.5,1685.98C13425.5,1685.98 13433.3,1681.94 13438.8,1674.92C13441.2,1671.88 13443.9,1668.57 13443.9,1664.96C13443.9,1648.81 13427,1646.44 13410.3,1652.24C13402.3,1655.02 13392.3,1661.66 13381.5,1668.32C13368.4,1676.35 13354.4,1684.49 13341.2,1688.82C13327.5,1693.33 13314.4,1693.81 13303,1688.96C13294.9,1685.53 13287.4,1679.46 13281.2,1669.42C13270.4,1651.8 13274.5,1633.45 13287.8,1616.75C13310.1,1588.93 13361.6,1566.19 13361.6,1566.19Z" style="fill:rgb(9,21,64);"/>
            </g>
            <path d="M14942.7,10419L15253.9,10419L15253.9,9538.92C15253.9,9241.09 15464.8,9023.58 15765.9,9023.58C16047,9023.58 16211,9204.28 16211,9522.18L16211,10419L16522.2,10419L16522.2,9502.11C16522.2,9033.62 16247.8,8735.8 15812.8,8735.8C15581.9,8735.8 15391.1,8819.46 15253.9,8980.08L15253.9,8076.57L14942.7,8076.57L14942.7,10419Z" style="fill:rgb(10,22,64);fill-rule:nonzero;"/>
            <path d="M17663.3,10442.4C17787.1,10442.4 17894.2,10419 18014.7,10365.5L17924.3,10107.8C17854,10137.9 17770.4,10161.3 17700.1,10161.3C17519.4,10161.3 17449.1,10054.3 17449.1,9870.2L17449.1,9036.97L17951.1,9036.97L17951.1,8765.92L17449.1,8765.92L17449.1,8287.39L17141.3,8320.85L17141.3,8765.92L16816.7,8765.92L16816.7,9036.97L17141.3,9036.97L17141.3,9870.2C17141.3,10241.6 17315.3,10442.4 17663.3,10442.4Z" style="fill:rgb(10,22,64);fill-rule:nonzero;"/>
            <path d="M18369.4,10419L18694,10419L18694,9686.16L19436.8,9686.16C19942.1,9686.16 20266.7,9361.56 20266.7,8879.69C20266.7,8401.17 19942.1,8076.57 19436.8,8076.57L18369.4,8076.57L18369.4,10419ZM18694,9384.99L18694,8377.74L19420.1,8377.74C19741.4,8377.74 19945.5,8575.18 19945.5,8879.69C19945.5,9184.21 19741.4,9384.99 19420.1,9384.99L18694,9384.99Z" style="fill:rgb(10,22,64);fill-rule:nonzero;"/>
            <path d="M21280.7,10455.8C21551.7,10455.8 21779.3,10348.7 21909.8,10174.7L21913.1,10419L22187.5,10419L22187.5,8765.92L21913.1,8765.92L21909.8,9010.2C21779.3,8836.19 21551.7,8729.11 21280.7,8729.11C20795.5,8729.11 20454.1,9083.82 20454.1,9592.46C20454.1,10101.1 20795.5,10455.8 21280.7,10455.8ZM20765.3,9592.46C20765.3,9254.48 20996.2,9016.89 21320.8,9016.89C21648.8,9016.89 21876.3,9254.48 21876.3,9592.46C21876.3,9930.44 21648.8,10168 21320.8,10168C20996.2,10168 20765.3,9930.44 20765.3,9592.46Z" style="fill:rgb(10,22,64);fill-rule:nonzero;"/>
            <path d="M23382.2,10442.4C23506,10442.4 23613.1,10419 23733.5,10365.5L23643.2,10107.8C23572.9,10137.9 23489.2,10161.3 23419,10161.3C23238.3,10161.3 23168,10054.3 23168,9870.2L23168,9036.97L23669.9,9036.97L23669.9,8765.92L23168,8765.92L23168,8287.39L22860.1,8320.85L22860.1,8765.92L22535.5,8765.92L22535.5,9036.97L22860.1,9036.97L22860.1,9870.2C22860.1,10241.6 23034.1,10442.4 23382.2,10442.4Z" style="fill:rgb(10,22,64);fill-rule:nonzero;"/>
            <path d="M24028,10419L24339.2,10419L24339.2,9538.92C24339.2,9241.09 24550,9023.58 24851.2,9023.58C25132.3,9023.58 25296.3,9204.28 25296.3,9522.18L25296.3,10419L25607.5,10419L25607.5,9502.11C25607.5,9033.62 25333.1,8735.8 24898,8735.8C24667.1,8735.8 24476.4,8819.46 24339.2,8980.08L24339.2,8076.57L24028,8076.57L24028,10419Z" style="fill:rgb(10,22,64);fill-rule:nonzero;"/>
        </g>
    </g>
</svg>
